<svg width="24" height="24" viewBox="0 0 24 24" fill="none" xmlns="http://www.w3.org/2000/svg">
<g id="Trailing/icon">
<circle id="Ellipse 16" cx="12" cy="12" r="10" fill="white"/>
<path id="Exclude" fill-rule="evenodd" clip-rule="evenodd" d="M22 12C22 17.5228 17.5228 22 12 22C6.47715 22 2 17.5228 2 12C2 6.47715 6.47715 2 12 2C17.5228 2 22 6.47715 22 12ZM8.42426 7.57574C8.18995 7.34142 7.81005 7.34142 7.57574 7.57574C7.34142 7.81005 7.34142 8.18995 7.57574 8.42426L11.1515 12L7.57574 15.5757C7.34142 15.8101 7.34142 16.1899 7.57574 16.4243C7.81005 16.6586 8.18995 16.6586 8.42426 16.4243L12 12.8485L15.5757 16.4243C15.8101 16.6586 16.1899 16.6586 16.4243 16.4243C16.6586 16.1899 16.6586 15.8101 16.4243 15.5757L12.8485 12L16.4243 8.42426C16.6586 8.18995 16.6586 7.81005 16.4243 7.57574C16.1899 7.34142 15.8101 7.34142 15.5757 7.57574L12 11.1515L8.42426 7.57574Z" fill="#9FA3AB"/>
</g>
</svg>
