<svg width="28" height="28" viewBox="0 0 28 28" fill="none" xmlns="http://www.w3.org/2000/svg">
<g id="dots-vertical">
<g id="Icon">
<path d="M14.0007 15.1667C14.645 15.1667 15.1673 14.6444 15.1673 14.0001C15.1673 13.3558 14.645 12.8334 14.0007 12.8334C13.3563 12.8334 12.834 13.3558 12.834 14.0001C12.834 14.6444 13.3563 15.1667 14.0007 15.1667Z" fill="#15181E"/>
<path d="M14.0007 7.00008C14.645 7.00008 15.1673 6.47775 15.1673 5.83341C15.1673 5.18908 14.645 4.66675 14.0007 4.66675C13.3563 4.66675 12.834 5.18908 12.834 5.83341C12.834 6.47775 13.3563 7.00008 14.0007 7.00008Z" fill="#15181E"/>
<path d="M14.0007 23.3334C14.645 23.3334 15.1673 22.8111 15.1673 22.1667C15.1673 21.5224 14.645 21.0001 14.0007 21.0001C13.3563 21.0001 12.834 21.5224 12.834 22.1667C12.834 22.8111 13.3563 23.3334 14.0007 23.3334Z" fill="#15181E"/>
<path d="M14.0007 15.1667C14.645 15.1667 15.1673 14.6444 15.1673 14.0001C15.1673 13.3558 14.645 12.8334 14.0007 12.8334C13.3563 12.8334 12.834 13.3558 12.834 14.0001C12.834 14.6444 13.3563 15.1667 14.0007 15.1667Z" stroke="#15181E" stroke-width="1.2" stroke-linecap="round" stroke-linejoin="round"/>
<path d="M14.0007 7.00008C14.645 7.00008 15.1673 6.47775 15.1673 5.83341C15.1673 5.18908 14.645 4.66675 14.0007 4.66675C13.3563 4.66675 12.834 5.18908 12.834 5.83341C12.834 6.47775 13.3563 7.00008 14.0007 7.00008Z" stroke="#15181E" stroke-width="1.2" stroke-linecap="round" stroke-linejoin="round"/>
<path d="M14.0007 23.3334C14.645 23.3334 15.1673 22.8111 15.1673 22.1667C15.1673 21.5224 14.645 21.0001 14.0007 21.0001C13.3563 21.0001 12.834 21.5224 12.834 22.1667C12.834 22.8111 13.3563 23.3334 14.0007 23.3334Z" stroke="#15181E" stroke-width="1.2" stroke-linecap="round" stroke-linejoin="round"/>
</g>
</g>
</svg>
