<svg width="17" height="17" viewBox="0 0 17 17" fill="none" xmlns="http://www.w3.org/2000/svg">
<g id="marker-pin-01-filled">
<path id="Exclude" fill-rule="evenodd" clip-rule="evenodd" d="M8.88573 14.2018C8.67197 14.4138 8.45682 14.6272 8.24167 14.8423C8.02653 14.6272 7.81138 14.4138 7.59761 14.2018C5.14296 11.7678 2.87036 9.51419 2.87036 6.78535C2.87036 3.81885 5.27518 1.41403 8.24167 1.41403C11.2082 1.41403 13.613 3.81885 13.613 6.78535C13.613 9.5142 11.3404 11.7678 8.88573 14.2018ZM10.2558 6.78536C10.2558 7.89779 9.35397 8.7996 8.24154 8.7996C7.1291 8.7996 6.2273 7.89779 6.2273 6.78536C6.2273 5.67292 7.1291 4.77112 8.24154 4.77112C9.35397 4.77112 10.2558 5.67292 10.2558 6.78536Z" fill="white"/>
</g>
</svg>
