<svg width="28" height="28" viewBox="0 0 28 28" fill="none" xmlns="http://www.w3.org/2000/svg">
<g id="dots-vertical">
<g id="Icon">
<path d="M14.0002 15.1667C14.6445 15.1667 15.1668 14.6444 15.1668 14.0001C15.1668 13.3558 14.6445 12.8334 14.0002 12.8334C13.3558 12.8334 12.8335 13.3558 12.8335 14.0001C12.8335 14.6444 13.3558 15.1667 14.0002 15.1667Z" fill="#15181E"/>
<path d="M14.0002 7.00008C14.6445 7.00008 15.1668 6.47775 15.1668 5.83341C15.1668 5.18908 14.6445 4.66675 14.0002 4.66675C13.3558 4.66675 12.8335 5.18908 12.8335 5.83341C12.8335 6.47775 13.3558 7.00008 14.0002 7.00008Z" fill="#15181E"/>
<path d="M14.0002 23.3334C14.6445 23.3334 15.1668 22.8111 15.1668 22.1667C15.1668 21.5224 14.6445 21.0001 14.0002 21.0001C13.3558 21.0001 12.8335 21.5224 12.8335 22.1667C12.8335 22.8111 13.3558 23.3334 14.0002 23.3334Z" fill="#15181E"/>
<path d="M14.0002 15.1667C14.6445 15.1667 15.1668 14.6444 15.1668 14.0001C15.1668 13.3558 14.6445 12.8334 14.0002 12.8334C13.3558 12.8334 12.8335 13.3558 12.8335 14.0001C12.8335 14.6444 13.3558 15.1667 14.0002 15.1667Z" stroke="#15181E" stroke-width="1.2" stroke-linecap="round" stroke-linejoin="round"/>
<path d="M14.0002 7.00008C14.6445 7.00008 15.1668 6.47775 15.1668 5.83341C15.1668 5.18908 14.6445 4.66675 14.0002 4.66675C13.3558 4.66675 12.8335 5.18908 12.8335 5.83341C12.8335 6.47775 13.3558 7.00008 14.0002 7.00008Z" stroke="#15181E" stroke-width="1.2" stroke-linecap="round" stroke-linejoin="round"/>
<path d="M14.0002 23.3334C14.6445 23.3334 15.1668 22.8111 15.1668 22.1667C15.1668 21.5224 14.6445 21.0001 14.0002 21.0001C13.3558 21.0001 12.8335 21.5224 12.8335 22.1667C12.8335 22.8111 13.3558 23.3334 14.0002 23.3334Z" stroke="#15181E" stroke-width="1.2" stroke-linecap="round" stroke-linejoin="round"/>
</g>
</g>
</svg>
