<svg width="25" height="24" stroke="#9FA3AB" viewBox="0 0 25 24" fill="none" xmlns="http://www.w3.org/2000/svg">
<g id="home-line">
<path id="Icon" d="M8.66667 17H16.6667M11.6844 2.764L4.90206 8.03912C4.44869 8.39175 4.22201 8.56806 4.0587 8.78886C3.91404 8.98444 3.80627 9.20478 3.7407 9.43905C3.66667 9.70352 3.66667 9.9907 3.66667 10.5651V17.8C3.66667 18.9201 3.66667 19.4801 3.88466 19.908C4.07641 20.2843 4.38237 20.5903 4.75869 20.782C5.18651 21 5.74657 21 6.86667 21H18.4667C19.5868 21 20.1468 21 20.5747 20.782C20.951 20.5903 21.2569 20.2843 21.4487 19.908C21.6667 19.4801 21.6667 18.9201 21.6667 17.8V10.5651C21.6667 9.9907 21.6667 9.70352 21.5926 9.43905C21.5271 9.20478 21.4193 8.98444 21.2746 8.78886C21.1113 8.56806 20.8847 8.39175 20.4313 8.03913L13.649 2.764C13.2977 2.49075 13.122 2.35412 12.928 2.3016C12.7569 2.25526 12.5765 2.25526 12.4053 2.3016C12.2114 2.35412 12.0357 2.49075 11.6844 2.764Z" stroke="#9FA3AB" stroke-width="1.6" stroke-linecap="round" stroke-linejoin="round"/>
</g>
</svg>
