<svg width="24" height="24" viewBox="0 0 24 24" fill="none" xmlns="http://www.w3.org/2000/svg">
<g id="home-line">
<path id="Icon" d="M8 17.0002H16M11.0177 2.76424L4.23539 8.03937C3.78202 8.39199 3.55534 8.5683 3.39203 8.7891C3.24737 8.98469 3.1396 9.20503 3.07403 9.4393C3 9.70376 3 9.99094 3 10.5653V17.8002C3 18.9203 3 19.4804 3.21799 19.9082C3.40973 20.2845 3.71569 20.5905 4.09202 20.7822C4.51984 21.0002 5.07989 21.0002 6.2 21.0002H17.8C18.9201 21.0002 19.4802 21.0002 19.908 20.7822C20.2843 20.5905 20.5903 20.2845 20.782 19.9082C21 19.4804 21 18.9203 21 17.8002V10.5653C21 9.99094 21 9.70376 20.926 9.4393C20.8604 9.20503 20.7526 8.98469 20.608 8.7891C20.4447 8.5683 20.218 8.39199 19.7646 8.03937L12.9823 2.76424C12.631 2.49099 12.4553 2.35436 12.2613 2.30184C12.0902 2.2555 11.9098 2.2555 11.7387 2.30184C11.5447 2.35436 11.369 2.49099 11.0177 2.76424Z" stroke="#15181E" stroke-width="1.6" stroke-linecap="round" stroke-linejoin="round"/>
</g>
</svg>
