<svg width="30" height="30" viewBox="0 0 30 30" fill="none" xmlns="http://www.w3.org/2000/svg">
<g id="ph:x">
<path id="Vector" d="M24.1013 22.7743C24.1884 22.8614 24.2575 22.9648 24.3046 23.0786C24.3518 23.1924 24.376 23.3144 24.376 23.4375C24.376 23.5607 24.3518 23.6827 24.3046 23.7965C24.2575 23.9103 24.1884 24.0137 24.1013 24.1008C24.0142 24.1879 23.9108 24.257 23.797 24.3042C23.6832 24.3513 23.5612 24.3756 23.438 24.3756C23.3148 24.3756 23.1929 24.3513 23.0791 24.3042C22.9653 24.257 22.8618 24.1879 22.7747 24.1008L15.0005 16.3254L7.2263 24.1008C7.05039 24.2767 6.8118 24.3756 6.56302 24.3756C6.31424 24.3756 6.07565 24.2767 5.89974 24.1008C5.72383 23.9249 5.625 23.6863 5.625 23.4375C5.625 23.1888 5.72383 22.9502 5.89974 22.7743L13.6751 15L5.89974 7.22581C5.72383 7.0499 5.625 6.81131 5.625 6.56253C5.625 6.31375 5.72383 6.07516 5.89974 5.89925C6.07565 5.72334 6.31424 5.62451 6.56302 5.62451C6.8118 5.62451 7.05039 5.72334 7.2263 5.89925L15.0005 13.6746L22.7747 5.89925C22.9507 5.72334 23.1892 5.62451 23.438 5.62451C23.6868 5.62451 23.9254 5.72334 24.1013 5.89925C24.2772 6.07516 24.376 6.31375 24.376 6.56253C24.376 6.81131 24.2772 7.0499 24.1013 7.22581L16.3259 15L24.1013 22.7743Z" fill="black"/>
</g>
</svg>
